<svg data-name="Layer 1" xmlns="http://www.w3.org/2000/svg" width="738.82" height="576.27"><path d="M427.91 433.78l92.37 8.2.99.09V47.93l-.99-.69a288.323 288.323 0 00-62.01-32.94l-4.72 65.1-.43 5.96-4.67 64.56-1.44 19.86-18.93 261.7zM199.48 40.59c-.66.42-1.32.84-1.98 1.28v400.2l1.98-.18 91.37-8.11-.17-2.3-18.93-261.7-1.44-19.86-4.67-64.56-.43-5.96-4.95-68.27a287.687 287.687 0 00-60.78 29.46z" fill="#e6e6e6"/><path d="M197.5 41.87c-1.33.86-2.66 1.74-3.97 2.63v403.03c0 10.07 5.97 18.51 13.95 20.66a15.249 15.249 0 004 .53h296.8a15.118 15.118 0 003.99-.53 17.06 17.06 0 007.78-4.66 22.919 22.919 0 006.18-16V51.51c-1.64-1.21-3.29-2.41-4.96-3.58l-.99-.69v400.29a16.108 16.108 0 01-.46 3.85c-1.41 5.95-6.06 10.31-11.54 10.31h-296.8c-6.62 0-12-6.35-12-14.16V40.59c-.66.42-1.32.84-1.98 1.28z" fill="#e6e6e6"/><path fill="#e6e6e6" d="M196.503 79.404h326.752v5.959H196.503z"/><path d="M423.18 3.39c-1.98-.49-3.96-.95-5.96-1.38v161.81h5.96zM302.54 0c-1.99.37-3.98.75-5.96 1.16v162.66h5.96zM132.44 458.29a26.711 26.711 0 001.93 9.98 25.54 25.54 0 001.75 3.56 27.096 27.096 0 003.02 4.18 26.76 26.76 0 0020.12 9.11h391.31a26.82 26.82 0 000-53.64H159.26a26.846 26.846 0 00-26.82 26.81z" fill="#e6e6e6"/><path fill="#e6e6e6" d="M521.268 169.782H196.502V149.92h324.766z"/><path d="M372.79 154.885H344.98a10.925 10.925 0 0110.925-10.925h5.959a10.925 10.925 0 0110.925 10.925z" fill="#e6e6e6"/><path d="M0 473.61a289.004 289.004 0 0028.12 28.95H710.7a289.004 289.004 0 0028.12-28.95zM72.13 222.28v187.26a9.007 9.007 0 009 9h277.5a9.007 9.007 0 009-9V222.28a9.011 9.011 0 00-9-8.99H81.13a9.012 9.012 0 00-9 8.99z" fill="#3f3d56"/><path d="M78.64 224.61v182.62a4.818 4.818 0 004.81 4.81h272.87a4.818 4.818 0 004.81-4.81V224.61a4.82 4.82 0 00-4.81-4.82H83.45a4.82 4.82 0 00-4.81 4.82z" fill="#ff6d63"/><path d="M134.28 490.24a2.948 2.948 0 002.32 1.11h162.34a2.987 2.987 0 002.92-3.6l-2.52-11.97a2.993 2.993 0 00-1.86-2.17 2.895 2.895 0 00-1.06-.2H139.11a2.894 2.894 0 00-1.06.2 2.992 2.992 0 00-1.86 2.17l-2.52 11.97a2.985 2.985 0 00.61 2.49z" fill="#2f2e41"/><path d="M97.162 244.947h255.323a1.016 1.016 0 000-2.031H97.162a1.016 1.016 0 000 2.03z" fill="#3f3d56"/><ellipse cx="335.105" cy="231.649" rx="5.95" ry="6.083" fill="#3f3d56"/><ellipse cx="314.549" cy="231.649" rx="5.95" ry="6.083" fill="#3f3d56"/><ellipse cx="293.993" cy="231.649" rx="5.95" ry="6.083" fill="#3f3d56"/><path d="M108.45 228.18a1.095 1.095 0 001.09 1.1h14.6a1.105 1.105 0 000-2.21h-14.6a1.103 1.103 0 00-1.09 1.11zM108.45 232.33a1.095 1.095 0 001.09 1.1h14.6a1.105 1.105 0 000-2.21h-14.6a1.103 1.103 0 00-1.09 1.11zM108.45 236.47a1.103 1.103 0 001.09 1.11h14.6a1.105 1.105 0 000-2.21h-14.6a1.095 1.095 0 00-1.09 1.1z" fill="#3f3d56"/><rect x="104.836" y="268.543" width="11.006" height="5.76" rx="2.88" fill="#e6e6e6"/><rect x="164.836" y="268.543" width="11.006" height="5.76" rx="2.88" fill="#e6e6e6"/><rect x="181.836" y="268.543" width="11.006" height="5.76" rx="2.88" fill="#e6e6e6"/><rect x="121.156" y="268.063" width="38.366" height="5.76" rx="2.88" fill="#e6e6e6"/><rect x="201.156" y="268.063" width="38.366" height="5.76" rx="2.88" fill="#e6e6e6"/><rect x="120.836" y="281.543" width="11.006" height="5.76" rx="2.88" fill="#e6e6e6"/><rect x="180.836" y="281.543" width="11.006" height="5.76" rx="2.88" fill="#e6e6e6"/><rect x="197.836" y="281.543" width="11.006" height="5.76" rx="2.88" fill="#e6e6e6"/><rect x="137.156" y="281.063" width="38.366" height="5.76" rx="2.88" fill="#e6e6e6"/><rect x="217.156" y="281.063" width="38.366" height="5.76" rx="2.88" fill="#e6e6e6"/><rect x="136.836" y="294.543" width="11.006" height="5.76" rx="2.88" fill="#e6e6e6"/><rect x="196.836" y="294.543" width="11.006" height="5.76" rx="2.88" fill="#e6e6e6"/><rect x="213.836" y="294.543" width="11.006" height="5.76" rx="2.88" fill="#e6e6e6"/><rect x="153.156" y="294.063" width="38.366" height="5.76" rx="2.88" fill="#e6e6e6"/><rect x="233.156" y="294.063" width="38.366" height="5.76" rx="2.88" fill="#e6e6e6"/><rect x="152.836" y="307.543" width="11.006" height="5.76" rx="2.88" fill="#e6e6e6"/><rect x="212.836" y="307.543" width="11.006" height="5.76" rx="2.88" fill="#e6e6e6"/><rect x="229.836" y="307.543" width="11.006" height="5.76" rx="2.88" fill="#e6e6e6"/><rect x="169.156" y="307.063" width="38.366" height="5.76" rx="2.88" fill="#e6e6e6"/><rect x="164.836" y="359.237" width="11.006" height="5.76" rx="2.88" fill="#e6e6e6"/><rect x="181.836" y="359.237" width="11.006" height="5.76" rx="2.88" fill="#e6e6e6"/><rect x="201.156" y="359.717" width="38.366" height="5.76" rx="2.88" fill="#e6e6e6"/><rect x="104.836" y="359.237" width="11.006" height="5.76" rx="2.88" fill="#e6e6e6"/><rect x="121.156" y="359.717" width="38.366" height="5.76" rx="2.88" fill="#e6e6e6"/><rect x="120.836" y="346.237" width="11.006" height="5.76" rx="2.88" fill="#e6e6e6"/><rect x="180.836" y="346.237" width="11.006" height="5.76" rx="2.88" fill="#e6e6e6"/><rect x="197.836" y="346.237" width="11.006" height="5.76" rx="2.88" fill="#e6e6e6"/><rect x="137.156" y="346.717" width="38.366" height="5.76" rx="2.88" fill="#e6e6e6"/><rect x="136.836" y="333.237" width="11.006" height="5.76" rx="2.88" fill="#e6e6e6"/><rect x="196.836" y="333.237" width="11.006" height="5.76" rx="2.88" fill="#e6e6e6"/><rect x="213.836" y="333.237" width="11.006" height="5.76" rx="2.88" fill="#e6e6e6"/><rect x="153.156" y="333.717" width="38.366" height="5.76" rx="2.88" fill="#e6e6e6"/><rect x="152.836" y="320.237" width="11.006" height="5.76" rx="2.88" fill="#e6e6e6"/><rect x="212.836" y="320.237" width="11.006" height="5.76" rx="2.88" fill="#e6e6e6"/><rect x="229.836" y="320.237" width="11.006" height="5.76" rx="2.88" fill="#e6e6e6"/><rect x="169.156" y="320.717" width="38.366" height="5.76" rx="2.88" fill="#e6e6e6"/><path d="M94.1 547.04c.61.31 1.23.62 1.84.92 15.8 7.9 28.44 12.39 45.73 17.31 1.46-16.3 2.87-44.95 4.24-62.71.36-4.61.72-8.48 1.07-11.21a15.182 15.182 0 01.88-4.25l-.06 4.25-.15 11.21-.87 64.11a288.588 288.588 0 0065.84 9.49c1.16.03 2.3.05 3.4.07.39.01.77.02 1.15.02 1.25.01 2.49.02 3.74.02a289.271 289.271 0 0069.54-8.43c-.49-16.13-.98-44.46-1.45-65.28-.1-4.07-.19-7.86-.29-11.21-.19-7.16-.39-12.32-.58-14.05a4.361 4.361 0 01.39.97 97.154 97.154 0 011.89 13.08c.35 3.35.7 7.14 1.05 11.21 1.86 21.63 3.8 51.04 5.8 63.51a285.473 285.473 0 0034.97-12.03q9-3.75 17.68-8.09c-1.1-7.2-2.25-15.27-3.43-23.64-.92-6.49-1.87-13.16-2.84-19.75-1.5-10.18-23.79-81.32-25.2-84.02-1.21-2.31-2.36-4.49-3.45-6.5-2.64-4.88-4.88-8.77-6.54-11.23a55.257 55.257 0 00-29.28-22.21l-.3-.08-.21.09-20.45-6.28-2.99-.92-2.01-.62-7.08-5.39-3.85-2.93-3.61-2.75-7.06-5.37-43.71 2.69-8.51 20.49-19.06 6.97-.33-.15-.29-.12-.3.08a55.306 55.306 0 00-29.28 22.21c-.94 1.41-2.08 3.27-3.37 5.52-1.1 1.91-2.3 4.09-3.6 6.5-1.85 3.43-3.87 7.3-6.01 11.49-.47.92-.95 1.86-1.43 2.81q-1.335 2.64-2.71 5.39c-2.13 4.25-4.33 8.69-6.53 13.2-1.91 3.91-3.84 11.95-5.74 22.18-1.57 8.5-3.13 18.52-4.64 28.95-1.98 13.52.13 29.71-1.66 42.15-.11.79-.23 1.56-.34 2.33z" fill="#3f3d56"/><path opacity=".2" d="M303.59 473.566l-8.497-32.792-7.503 28.296 16 4.496z"/><path d="M77.48 452.2c3.04 41.88-.11 60.32 16.67 94.85a286.16 286.16 0 0047.52 18.22q2.55.72 5.11 1.4a288.588 288.588 0 0065.84 9.49c1.16.03 2.3.05 3.4.07.39.01.77.02 1.15.02 1.25.01 2.49.02 3.74.02a289.271 289.271 0 0069.54-8.43q3.42-.84 6.81-1.77a285.473 285.473 0 0034.97-12.03q9-3.75 17.68-8.09c1.31-.66 2.62-1.32 3.91-2 6.63-11.66 10.4-25.84 10.48-42.88-4.59-29.36-276.68-74.19-286.82-48.87z" fill="#2f2e41"/><path d="M77.488 459.372c-.155-2.593-.329-5.27-.531-8.06 10.14-25.32 282.23 19.51 286.82 48.87a110.45 110.45 0 01-.322 7.855C352.34 479.059 93.851 436.45 77.488 459.372z" opacity=".2"/><path d="M154.966 290.59a57.57 57.57 0 00114.038-15.91l-.114-.817a57.57 57.57 0 00-113.906 16.724z" fill="#ffb6b6"/><path d="M205.718 338.194c-2.976-5.996-6.035-12.433-5.226-19.078s7.3-13.015 13.703-11.063c3.83 1.168 6.733 4.935 10.731 5.115 5.502.247 8.635-6.06 10.33-11.3l6.902-21.342c13.314 10.459-3.547-.506 12.944-4.335 6.47-1.502 13.002-4.41 16.782-9.871s3.729-13.914-1.495-18.017c-2.56-2.011-5.963-2.768-8.411-4.915a9.407 9.407 0 017.457-16.395l-17.567-2.136 5.2-9.48c-3.76 2.984-9.005 3.402-13.732 2.567s-9.182-2.765-13.808-4.047c-22.207-6.153-47.956 4.761-58.978 24.998a22.478 22.478 0 00-24.484 7.159c-4.68 5.982-5.932 13.947-6.089 21.541a93.368 93.368 0 009.663 43.219c2.07 4.171 4.516 8.263 8.033 11.314s43.272 19.955 47.86 19.158" fill="#2f2e41"/></svg>